<?xml version="1.0" standalone="no"?>
<!DOCTYPE svg PUBLIC "-//W3C//DTD SVG 20010904//EN"
 "http://www.w3.org/TR/2001/REC-SVG-20010904/DTD/svg10.dtd">
<svg version="1.0" xmlns="http://www.w3.org/2000/svg"
 width="3394.000000pt" height="447.000000pt" viewBox="0 0 3394.000000 447.000000"
 preserveAspectRatio="xMidYMid meet">

<g transform="translate(0.000000,447.000000) scale(0.100000,-0.100000)"
fill="#000000" stroke="none">
<path d="M263 4430 c-135 -48 -210 -151 -233 -320 -8 -63 -11 -570 -8 -1935
l3 -1850 24 -52 c28 -63 112 -145 178 -176 75 -34 198 -31 279 6 76 35 135 94
171 172 l28 60 5 1607 5 1607 1055 -533 c580 -292 1410 -711 1844 -930 l789
-398 383 188 c211 104 383 191 384 194 0 7 -4618 2338 -4679 2361 -65 24 -159
24 -228 -1z"/>
<path d="M17060 4427 c-25 -7 -75 -29 -110 -49 -36 -20 -1358 -790 -2939
-1712 -1581 -922 -2878 -1676 -2882 -1676 -5 0 -10 708 -11 1573 l-3 1572 -26
55 c-48 100 -136 168 -252 192 -59 13 -182 -1 -257 -27 -19 -7 -291 -136 -605
-288 -313 -151 -1477 -712 -2585 -1246 -1108 -535 -2041 -988 -2074 -1008 -32
-20 -176 -93 -319 -163 l-260 -127 84 -45 c203 -110 535 -270 592 -284 66 -18
149 -13 215 11 20 7 251 116 512 243 261 126 1245 601 2185 1055 941 453 1799
868 1907 920 l198 95 2 -1581 3 -1582 29 -60 c37 -74 137 -178 203 -208 69
-32 229 -32 288 -1 22 12 501 291 1065 619 564 329 1035 601 1047 606 12 4
275 158 585 340 921 544 3491 2040 3498 2037 4 -2 692 -383 1529 -848 l1523
-845 -2694 -5 -2693 -5 -582 -340 -582 -340 3907 -5 3907 -5 1120 -625 c616
-343 1145 -633 1175 -643 72 -25 185 -20 251 12 113 54 188 161 197 282 l5 68
51 -21 c203 -83 555 -176 882 -235 l209 -38 4160 0 4160 0 56 26 c266 125 266
503 1 627 l-57 27 -4130 5 -4130 6 -170 31 c-619 114 -1045 293 -1317 552
-114 108 -177 192 -238 316 -65 131 -96 252 -105 402 -6 103 -4 130 15 213 94
400 312 708 650 920 244 153 575 269 935 329 66 10 136 23 155 27 19 4 1898
10 4175 13 l4140 6 56 26 c72 34 134 96 168 168 22 47 26 70 26 146 0 76 -4
99 -26 145 -33 70 -99 136 -169 169 l-55 26 -4120 3 c-4096 2 -4121 2 -4275
-18 -1305 -172 -2098 -789 -2336 -1816 -39 -167 -40 -196 -27 -404 8 -133 19
-214 37 -288 50 -200 141 -407 251 -571 49 -73 51 -80 27 -67 -15 8 -1341 744
-2947 1637 -1606 892 -2945 1635 -2975 1651 -66 34 -162 44 -230 25z"/>
<path d="M21665 3175 c-163 -30 -322 -101 -384 -171 -89 -101 -78 -223 27
-313 198 -170 646 -217 964 -101 130 48 216 110 256 185 20 40 20 131 -2 172
-53 103 -219 191 -431 228 -106 18 -331 18 -430 0z"/>
<path d="M12215 3166 c-228 -44 -401 -150 -430 -264 -14 -53 -6 -118 19 -157
67 -103 260 -195 474 -226 101 -14 309 -7 402 14 164 37 328 124 384 204 61
88 41 205 -48 278 -56 46 -193 110 -291 136 -103 27 -400 36 -510 15z"/>
</g>
</svg>
