<?xml version="1.0" encoding="utf-8"?>
<!-- Generator: Adobe Illustrator 16.0.0, SVG Export Plug-In . SVG Version: 6.00 Build 0)  -->
<!DOCTYPE svg [
	<!ENTITY ns_flows "http://ns.adobe.com/Flows/1.0/">
	<!ENTITY ns_extend "http://ns.adobe.com/Extensibility/1.0/">
	<!ENTITY ns_ai "http://ns.adobe.com/AdobeIllustrator/10.0/">
	<!ENTITY ns_graphs "http://ns.adobe.com/Graphs/1.0/">
]>
<svg version="1.2" baseProfile="tiny" id="Layer_1" xmlns:x="&ns_extend;" xmlns:i="&ns_ai;" xmlns:graph="&ns_graphs;"
	 xmlns="http://www.w3.org/2000/svg" xmlns:xlink="http://www.w3.org/1999/xlink" xmlns:a="http://ns.adobe.com/AdobeSVGViewerExtensions/3.0/"
	 x="0px" y="0px"   viewBox="0 0 620 211" xml:space="preserve">
<g>
	<path fill="#231F20" d="M221.695,146.863h-70.19c3.22,13.175,13.906,23.129,27.813,23.129c7.831,0,15.516-3.367,20.64-9.148
		l16.98,0.365c-7.466,14.199-21.738,23.275-38.279,23.275c-24.153,0-43.11-20.934-43.11-44.646c0-24.446,18.664-44.5,43.476-44.5
		c24.007,0,43.183,19.762,43.183,43.622C222.134,141.521,221.988,144.303,221.695,146.863L221.695,146.863z M178.805,109.829
		c-13.76,0-26.495,10.833-27.373,24.812h54.747C205.3,120.734,192.638,109.829,178.805,109.829z M292.032,182.361v-46.037
		c0-14.346-4.318-26.495-21.152-26.495c-15.589,0-22.323,12.077-22.323,26.349v46.184h-15.882V97.606h14.858v9.003h0.292
		c6.148-8.125,15.004-11.345,24.812-11.345c12.076,0,23.421,4.757,30.008,15.151c4.099,6.44,5.343,14.198,5.343,21.737v50.209
		H292.032z M392.522,182.361v-12.076h-0.292c-7.027,9.807-18.225,14.199-30.009,14.199c-25.397,0-44.062-18.957-44.062-44.207
		c0-25.398,18.371-45.013,44.062-45.013c10.687,0,22.03,4.099,28.765,12.662h0.292V69.135h15.883v113.226H392.522z M363.1,109.829
		c-16.834,0-29.057,13.761-29.057,30.302c0,15.882,12.735,29.861,28.91,29.861c16.541,0,29.496-13.467,29.496-29.861
		C392.522,123.15,380.446,109.829,363.1,109.829z M453.198,210.687H436.73l12.369-30.009l-33.814-83.071h17.127l24.958,65.798
		l25.543-65.798h17.127L453.198,210.687L453.198,210.687z M545.346,184.484c-24.958,0-45.745-20.055-45.745-45.159
		c0-24.958,21.299-44.061,45.745-44.061c24.812,0,45.744,19.25,45.744,44.354C591.09,163.844,571.035,184.484,545.346,184.484
		L545.346,184.484z M545.346,109.829c-16.542,0-29.862,13.468-29.862,30.009s13.32,30.154,29.862,30.154
		c16.688,0,29.861-13.76,29.861-30.301C575.134,123.15,561.813,109.829,545.346,109.829z M604.044,182.361V69.135H620v113.226
		H604.044z M15.736,165.674c0.659,2.708,1.537,4.904,2.562,6.588c1.024,1.683,2.342,3.146,3.879,4.537
		c5.05,4.392,11.418,6.66,18.957,6.66c7.465,0,14.492-1.83,20.859-5.343v-15.224c-6.587,3.879-12.881,5.855-18.81,5.855
		c-8.051,0-12.223-4.904-12.223-14.639V112.61h26.714V97.899H31.033V70.672H15.297v27.154H0v14.711h14.638v37.62
		C14.638,157.77,15.004,162.966,15.736,165.674z M111.982,111.806c4.904,0,10.32,2.708,16.102,8.124l8.637-14.346
		c-7.026-6.44-15.517-9.368-20.494-9.368h-1.098c-5.709,0-15.224,0-22.982,12.589l-0.293,0.512l0.073-11.417H75.46v84.023h16.468
		v-43.914c0-7.026,1.976-13.174,5.929-18.371C101.809,114.44,106.566,111.806,111.982,111.806z"/>
	<path fill="#FF671B" d="M455.394,78.357c-0.731,0.146-1.464-0.439-1.61-1.171l-4.245-26.642
		c-1.391-8.709-0.073-15.956,4.538-21.884c4.465-5.855,11.125-9.369,19.615-10.759L584.356,0.336
		c0.731-0.146,1.464,0.439,1.609,1.171l8.417,53.429c0.146,0.732-0.438,1.464-1.171,1.61L455.394,78.357z"/>
	<path fill="#FFFFFF" d="M492.429,50.179c-0.952,3.44-3.514,5.709-7.026,6.294c-4.465,0.732-9.589-1.903-10.613-8.344
		c-0.951-5.782,2.123-10.393,7.466-11.271c3.513-0.585,6.367,0.732,8.637,3.806l5.343-0.878c-2.415-5.197-8.71-8.271-14.712-7.319
		c-7.904,1.318-12.881,8.344-11.563,16.395c1.317,8.124,8.271,13.248,16.102,11.93c6.002-0.952,10.54-5.489,11.638-11.564
		L492.429,50.179L492.429,50.179z M513.068,27.343c-8.051,1.317-13.541,8.636-12.224,16.395c1.318,7.905,8.856,13.248,16.907,11.93
		c8.052-1.317,13.468-8.783,12.224-16.614C528.585,31.295,521.046,26.026,513.068,27.343z M516.947,51.276
		c-5.343,0.878-10.467-2.781-11.345-8.271c-0.878-5.416,2.781-10.54,8.124-11.417c5.343-0.878,10.467,2.781,11.345,8.124
		C525.949,45.275,522.363,50.398,516.947,51.276z M577.184,45.202l-2.635-16.249c-1.172-7.099-5.929-10.759-12.809-9.588
		c-4.172,0.659-6.66,2.489-8.124,5.929l-0.146,0.292l-0.146-0.219c-1.977-2.854-6.075-3.586-9.076-3.147
		c-3.439,0.585-5.196,1.83-7.1,4.904l-0.072,0.073l-0.293,0.073l-0.513-2.928l-4.392,0.732l4.392,26.934l4.831-0.805l-2.416-15.077
		c-0.878-5.563,0.879-8.636,5.563-9.368c2.343-0.366,4.245,0.219,5.636,1.756c1.464,1.684,1.757,3.44,2.05,5.489l2.488,15.004
		l4.831-0.805l-2.489-15.004c-0.658-3.879-0.585-8.417,5.271-9.368c4.317-0.732,7.099,1.83,7.978,7.246l2.415,15.004L577.184,45.202
		L577.184,45.202z M469.153,61.084c0,2.123-1.756,3.879-3.879,3.879c-2.122,0-3.879-1.757-3.879-3.879s1.757-3.879,3.879-3.879
		C467.47,57.132,469.153,58.888,469.153,61.084z"/>
</g>
</svg>
